<?xml version="1.0" encoding="UTF-8" standalone="no"?>
<!-- Generator: Adobe Illustrator 14.0.0, SVG Export Plug-In . SVG Version: 6.00 Build 43363)  -->

<svg
   xmlns:dc="http://purl.org/dc/elements/1.1/"
   xmlns:cc="http://creativecommons.org/ns#"
   xmlns:rdf="http://www.w3.org/1999/02/22-rdf-syntax-ns#"
   xmlns:svg="http://www.w3.org/2000/svg"
   xmlns="http://www.w3.org/2000/svg"
   xmlns:sodipodi="http://sodipodi.sourceforge.net/DTD/sodipodi-0.dtd"
   xmlns:inkscape="http://www.inkscape.org/namespaces/inkscape"
   version="1.1"
   id="icon-m-input-methods-backspace-layer"
   x="0px"
   y="0px"
   width="48px"
   height="48px"
   viewBox="0 0 48 48"
   style="enable-background:new 0 0 48 48;"
   xml:space="preserve"
   inkscape:version="0.48.1 r9760"
   sodipodi:docname="icon-m-input-methods-backspace.svg"><metadata
   id="metadata18"><rdf:RDF><cc:Work
       rdf:about=""><dc:format>image/svg+xml</dc:format><dc:type
         rdf:resource="http://purl.org/dc/dcmitype/StillImage" /></cc:Work></rdf:RDF></metadata><defs
   id="defs16" /><sodipodi:namedview
   pagecolor="#ffffff"
   bordercolor="#666666"
   borderopacity="1"
   objecttolerance="10"
   gridtolerance="10"
   guidetolerance="10"
   inkscape:pageopacity="0"
   inkscape:pageshadow="2"
   inkscape:window-width="640"
   inkscape:window-height="480"
   id="namedview14"
   showgrid="false"
   inkscape:zoom="5.1666667"
   inkscape:cx="24"
   inkscape:cy="24"
   inkscape:window-x="0"
   inkscape:window-y="0"
   inkscape:window-maximized="0"
   inkscape:current-layer="icon-m-input-methods-backspace-layer" />
<g
   id="icon-m-input-methods-backspace">
	<rect
   style="fill:none;"
   width="48"
   height="48"
   id="rect4" />
	<g
   id="g6">
		<polygon
   style="fill:#000000"
   points="31.467,30 33,28.467 22.536,18 21,19.535 31.467,30   "
   id="polygon8" />
		<polygon
   style="fill:#000000"
   points="33,19.535 31.467,18 21,28.467 22.536,30 33,19.535   "
   id="polygon10" />
		<path
   style="fill:#000000"
   d="M40,12H18.68c-1.1,0-2.608,0.664-3.352,1.475l-8.723,9.051c-0.743,0.812-0.743,2.139,0,2.949    l8.723,9.051C16.072,35.337,17.58,36,18.68,36H40c1.1,0,2-0.9,2-2V14C42,12.9,41.1,12,40,12z M39,32c0,0.55-0.45,1-1,1H19    c-0.55,0-1.304-0.332-1.676-0.737L10,24.738c-0.372-0.406-0.372-1.07,0-1.476l7.324-7.524C17.696,15.332,18.45,15,19,15h19    c0.55,0,1,0.451,1,1V32z"
   id="path12" />
	</g>
</g>
</svg>