<?xml version="1.0" encoding="UTF-8" standalone="no"?>
<!-- Generator: Adobe Illustrator 14.0.0, SVG Export Plug-In . SVG Version: 6.00 Build 43363)  -->

<svg
   xmlns:dc="http://purl.org/dc/elements/1.1/"
   xmlns:cc="http://creativecommons.org/ns#"
   xmlns:rdf="http://www.w3.org/1999/02/22-rdf-syntax-ns#"
   xmlns:svg="http://www.w3.org/2000/svg"
   xmlns="http://www.w3.org/2000/svg"
   xmlns:sodipodi="http://sodipodi.sourceforge.net/DTD/sodipodi-0.dtd"
   xmlns:inkscape="http://www.inkscape.org/namespaces/inkscape"
   version="1.1"
   id="icon-m-input-methods-shift-lowercase-layer"
   x="0px"
   y="0px"
   width="48px"
   height="48px"
   viewBox="0 0 48 48"
   style="enable-background:new 0 0 48 48;"
   xml:space="preserve"
   inkscape:version="0.48.1 r9760"
   sodipodi:docname="icon-m-input-methods-shift-lowercase.svg"><metadata
   id="metadata12"><rdf:RDF><cc:Work
       rdf:about=""><dc:format>image/svg+xml</dc:format><dc:type
         rdf:resource="http://purl.org/dc/dcmitype/StillImage" /></cc:Work></rdf:RDF></metadata><defs
   id="defs10" /><sodipodi:namedview
   pagecolor="#ffffff"
   bordercolor="#666666"
   borderopacity="1"
   objecttolerance="10"
   gridtolerance="10"
   guidetolerance="10"
   inkscape:pageopacity="0"
   inkscape:pageshadow="2"
   inkscape:window-width="640"
   inkscape:window-height="480"
   id="namedview8"
   showgrid="false"
   inkscape:zoom="5.1666667"
   inkscape:cx="24"
   inkscape:cy="24"
   inkscape:window-x="0"
   inkscape:window-y="0"
   inkscape:window-maximized="0"
   inkscape:current-layer="icon-m-input-methods-shift-lowercase-layer" />
<g
   id="icon-m-input-methods-shift-lowercase">
	<path
   style="fill:#000000"
   d="M36.438,23.172l-3.646-5.016l-2.352-3.234l-3.646-5.016c-0.689-0.947-1.707-1.49-2.794-1.49   c-1.086,0-2.105,0.543-2.794,1.491l-3.645,5.015l-2.352,3.234l-3.646,5.016c-0.767,1.054-0.915,2.229-0.408,3.227   c0.507,0.996,1.546,1.566,2.849,1.566h0.75h0.594c0.551,0,1,0.449,1,1v2.967v3.652c0,2.207,1.794,4,4,4h7.144c2.205,0,4-1.793,4-4   v-2.781v-3.838c0-0.551,0.448-1,1-1h0.99h0.514c1.304,0,2.342-0.57,2.85-1.566S37.204,24.227,36.438,23.172z M33.995,25.965h-0.514   h-0.99c-1.654,0-3,1.346-3,3v3.838v2.781c0,1.102-0.9,2-2,2h-7.144c-1.1,0-2-0.898-2-2v-3.652v-2.967c0-1.654-1.346-3-3-3h-0.594   h-0.75c-1.1,0-1.471-0.728-0.824-1.617l3.646-5.015c0.647-0.89,1.706-2.346,2.352-3.235l3.646-5.015   c0.323-0.444,0.75-0.667,1.176-0.667s0.853,0.223,1.177,0.667l3.646,5.015c0.647,0.89,1.706,2.346,2.353,3.235l3.645,5.015   C35.466,25.237,35.096,25.965,33.995,25.965z"
   id="path4" />
	<rect
   style="fill:none;"
   width="48"
   height="48"
   id="rect6" />
</g>
</svg>